<?xml version="1.0" standalone="no"?>
<!DOCTYPE svg PUBLIC "-//W3C//DTD SVG 20010904//EN"
 "http://www.w3.org/TR/2001/REC-SVG-20010904/DTD/svg10.dtd">
<svg version="1.0" xmlns="http://www.w3.org/2000/svg"
 width="1092.000000pt" height="978.000000pt" viewBox="0 0 1092.000000 978.000000"
 preserveAspectRatio="xMidYMid meet">
<metadata>
Created by potrace 1.16, written by Peter Selinger 2001-2019
</metadata>
<g transform="translate(0.000000,978.000000) scale(0.100000,-0.100000)"
fill="#000000" stroke="none">
<path d="M0 4890 l0 -4890 5460 0 5460 0 0 4890 0 4890 -5460 0 -5460 0 0
-4890z m5920 4805 c773 -68 1437 -284 2100 -681 1037 -622 1826 -1665 2149
-2839 188 -685 223 -1425 100 -2125 -241 -1372 -1081 -2589 -2274 -3298 -771
-458 -1584 -682 -2475 -682 -898 0 -1720 229 -2500 696 -1037 622 -1826 1665
-2149 2839 -188 685 -223 1425 -100 2125 171 972 637 1867 1340 2569 750 751
1721 1231 2769 1372 300 40 747 50 1040 24z"/>
<path d="M2117 6275 c-307 -58 -487 -279 -463 -566 23 -279 166 -407 601 -539
339 -103 408 -162 407 -351 0 -108 -41 -178 -133 -224 -95 -49 -280 -58 -379
-20 -110 43 -195 137 -235 261 l-20 61 -155 -49 c-85 -28 -156 -51 -158 -52
-1 -2 7 -29 18 -60 69 -202 230 -347 455 -408 115 -31 393 -31 506 0 212 57
352 180 410 358 32 96 32 259 1 359 -59 192 -182 279 -572 400 -224 70 -297
100 -343 144 -86 79 -102 234 -36 335 63 94 242 143 381 102 106 -31 190 -124
229 -253 7 -24 17 -43 23 -43 5 0 79 19 162 41 l153 42 -20 51 c-82 208 -231
346 -434 401 -86 23 -300 28 -398 10z"/>
<path d="M3905 6275 c-217 -41 -380 -152 -503 -344 -116 -180 -175 -474 -152
-763 24 -300 102 -491 269 -659 149 -149 351 -219 596 -206 282 15 495 144
633 384 101 177 137 342 136 623 -1 151 -5 204 -23 289 -82 387 -310 625 -653
681 -84 13 -217 11 -303 -5z m313 -267 c109 -40 193 -134 252 -280 77 -194 90
-516 29 -768 -55 -233 -190 -378 -373 -400 -300 -36 -498 196 -524 613 -15
247 14 459 84 604 43 91 128 184 198 218 92 45 233 50 334 13z"/>
<path d="M8458 6280 c-377 -68 -617 -361 -667 -813 -65 -579 176 -1035 600
-1137 288 -68 582 -7 752 158 88 85 183 251 202 354 l6 33 -113 34 c-62 19
-132 40 -154 47 l-42 12 -16 -65 c-37 -146 -114 -251 -225 -306 -62 -30 -71
-32 -181 -32 -110 0 -118 1 -182 33 -171 84 -272 277 -299 573 -28 304 38 587
172 733 120 131 327 172 485 96 97 -48 184 -174 215 -313 7 -33 17 -56 23 -54
6 3 74 19 151 37 77 18 144 36 149 41 13 12 -27 136 -72 224 -53 102 -183 231
-282 278 -41 19 -102 43 -135 52 -69 19 -314 29 -387 15z"/>
<path d="M5250 5300 l0 -960 150 0 150 0 -1 648 c-1 356 -4 720 -8 810 -6 156
-5 163 13 160 14 -2 41 -56 111 -218 103 -241 158 -362 443 -970 l200 -425
206 -3 206 -2 0 960 0 960 -155 0 -155 0 0 -297 c0 -351 17 -1085 26 -1160 6
-48 4 -53 -13 -53 -16 0 -29 26 -72 148 -83 232 -157 404 -388 900 l-215 462
-249 0 -249 0 0 -960z"/>
<path d="M7130 6100 l0 -160 170 0 170 0 0 160 0 160 -170 0 -170 0 0 -160z"/>
<path d="M7147 5694 c-4 -4 -7 -310 -7 -681 l0 -673 160 0 160 0 -2 678 -3
677 -151 3 c-82 1 -153 -1 -157 -4z"/>
<path d="M4433 3660 c-56 -12 -96 -33 -139 -77 -126 -125 -133 -421 -13 -557
56 -63 115 -89 203 -90 82 0 117 15 164 68 17 20 34 36 37 36 3 0 5 -15 5 -34
0 -54 8 -66 46 -66 l34 0 0 190 0 190 -135 0 -135 0 0 -45 0 -45 81 0 82 0 -7
-46 c-10 -75 -43 -125 -97 -148 -83 -34 -163 0 -208 89 -24 46 -26 61 -26 170
0 112 2 124 29 178 30 62 66 92 124 103 75 14 153 -38 168 -113 l6 -30 58 14
58 15 -10 32 c-11 32 -51 92 -78 114 -52 44 -167 69 -247 52z"/>
<path d="M1390 3407 c0 -333 13 -378 126 -433 48 -23 69 -27 142 -27 96 0 136
12 191 59 67 56 71 77 71 382 l0 272 -49 0 -50 0 -3 -257 c-4 -304 -8 -321
-84 -355 -54 -23 -126 -20 -168 7 -52 34 -56 61 -56 344 l0 261 -60 0 -60 0 0
-253z"/>
<path d="M7320 3383 c0 -258 -1 -280 -20 -310 -20 -34 -66 -50 -115 -41 -23 5
-25 3 -25 -37 0 -41 1 -43 36 -49 44 -9 129 8 170 33 17 10 39 36 50 57 17 35
19 67 22 332 l3 292 -60 0 -61 0 0 -277z"/>
<path d="M2175 3436 c-72 -20 -105 -61 -105 -130 0 -83 33 -111 183 -150 78
-21 97 -36 97 -75 0 -42 -28 -61 -90 -61 -47 0 -56 3 -86 36 -33 34 -35 35
-72 24 -52 -17 -54 -21 -32 -57 30 -50 91 -76 180 -77 131 -1 203 52 203 151
0 76 -42 112 -173 147 -87 24 -110 39 -110 76 0 36 23 50 80 50 34 0 48 -6 70
-30 15 -16 32 -30 37 -30 22 0 83 22 83 30 0 15 -52 70 -80 85 -42 22 -128 27
-185 11z"/>
<path d="M2715 3441 c-118 -29 -189 -147 -170 -284 18 -143 94 -210 235 -210
42 -1 86 5 100 12 35 19 79 61 96 92 13 27 13 27 -31 38 -57 14 -65 14 -65 -3
0 -8 -14 -26 -31 -40 -65 -55 -165 -22 -190 64 -21 70 -20 70 167 70 l167 0
-6 54 c-11 106 -75 185 -167 205 -56 12 -62 12 -105 2z m116 -81 c22 -12 49
-61 49 -90 0 -19 -6 -20 -115 -20 -72 0 -115 4 -115 10 0 24 30 79 51 94 26
18 100 21 130 6z"/>
<path d="M3335 3443 c-36 -10 -66 -36 -93 -82 l-27 -46 -3 63 -3 62 -49 0 -50
0 0 -245 0 -245 55 0 55 0 0 137 c0 128 2 139 25 180 25 41 67 73 98 73 8 0
18 7 21 16 9 22 7 94 -1 93 -5 -1 -17 -4 -28 -6z"/>
<path d="M3566 3439 c-82 -20 -123 -75 -113 -150 9 -69 44 -94 190 -134 91
-25 121 -71 77 -115 -30 -30 -123 -28 -154 3 -13 13 -25 29 -28 37 -3 11 -12
12 -51 1 -53 -15 -57 -27 -22 -69 71 -84 250 -93 334 -17 34 31 36 37 36 93 0
90 -25 111 -195 164 -64 20 -76 27 -85 52 -8 24 -6 31 14 47 46 37 151 15 151
-32 0 -8 13 -9 42 -5 65 11 71 16 48 53 -37 61 -153 95 -244 72z"/>
<path d="M5145 3443 c-36 -10 -66 -36 -93 -82 l-27 -46 -3 63 -3 62 -49 0 -50
0 0 -245 0 -245 55 0 55 0 0 137 c0 128 2 139 25 180 25 41 67 73 98 73 8 0
18 7 21 16 9 22 7 94 -1 93 -5 -1 -17 -4 -28 -6z"/>
<path d="M5415 3439 c-55 -13 -108 -58 -136 -116 -19 -38 -24 -65 -24 -128 0
-63 5 -90 24 -128 75 -154 291 -168 385 -24 49 77 49 225 0 304 -47 76 -152
115 -249 92z m115 -84 c43 -22 64 -87 58 -177 -6 -86 -22 -124 -59 -144 -93
-48 -162 18 -163 156 0 143 70 214 164 165z"/>
<path d="M6593 3439 c-17 -5 -45 -23 -62 -40 l-31 -31 0 36 0 36 -55 0 -55 0
0 -335 0 -335 55 0 55 0 0 127 0 127 31 -32 c81 -83 212 -53 271 62 26 51 35
166 19 233 -15 60 -53 118 -88 137 -39 19 -102 26 -140 15z m69 -90 c29 -16
58 -86 58 -144 0 -113 -40 -175 -113 -175 -39 0 -49 5 -76 35 -30 35 -31 39
-31 130 0 93 0 94 34 129 27 29 41 36 70 36 21 0 46 -5 58 -11z"/>
<path d="M7730 3439 c-53 -10 -86 -33 -118 -79 -26 -39 -21 -45 46 -56 34 -5
42 -4 42 9 0 28 49 57 96 57 55 0 84 -26 84 -75 0 -31 -3 -35 -32 -39 -136
-19 -172 -27 -203 -46 -45 -28 -69 -73 -68 -131 1 -86 56 -133 153 -133 55 1
130 29 147 56 5 9 9 3 13 -17 5 -28 8 -30 55 -33 l50 -3 -3 173 c-1 95 -4 187
-7 204 -7 39 -37 79 -73 98 -37 19 -127 27 -182 15z m150 -300 c0 -42 -5 -55
-29 -79 -34 -34 -68 -45 -116 -36 -38 8 -55 30 -55 74 0 53 63 88 163 91 l37
1 0 -51z"/>
<path d="M8343 3439 c-17 -5 -45 -23 -62 -40 l-31 -31 0 36 0 36 -55 0 -55 0
0 -335 0 -335 55 0 55 0 0 127 0 127 31 -32 c81 -83 212 -53 271 62 26 51 35
166 19 233 -15 60 -53 118 -88 137 -39 19 -102 26 -140 15z m69 -90 c29 -16
58 -86 58 -144 0 -113 -40 -175 -113 -175 -39 0 -49 5 -76 35 -30 35 -31 39
-31 130 0 93 0 94 34 129 27 29 41 36 70 36 21 0 46 -5 58 -11z"/>
<path d="M8822 3440 c-52 -11 -97 -42 -117 -80 -20 -39 -20 -38 23 -49 53 -15
61 -14 73 13 14 30 49 46 99 46 45 0 80 -35 80 -81 0 -30 11 -26 -140 -45 -53
-7 -106 -33 -139 -68 -34 -36 -40 -118 -12 -163 32 -50 65 -67 135 -67 61 1
110 18 135 48 17 20 31 11 31 -20 0 -22 4 -24 49 -24 l48 0 -5 198 c-5 220
-10 241 -72 273 -43 22 -131 31 -188 19z m158 -295 c0 -64 -46 -115 -112 -122
-41 -5 -50 -2 -73 21 -22 22 -26 33 -21 59 4 17 13 38 20 46 18 17 99 39 149
40 l37 1 0 -45z"/>
<path d="M9465 3440 c-17 -5 -49 -25 -72 -45 -23 -19 -44 -35 -47 -35 -3 0 -6
18 -6 40 l0 40 -50 0 -50 0 0 -245 0 -245 55 0 55 0 0 163 c0 131 3 167 16
185 37 53 130 70 158 30 13 -18 16 -56 16 -200 l0 -178 55 0 55 0 0 200 c0
217 -5 241 -54 273 -31 21 -92 29 -131 17z"/>
<path d="M5820 3248 c0 -212 6 -241 63 -282 56 -41 166 -21 223 41 l24 26 0
-42 0 -41 55 0 55 0 0 245 0 245 -55 0 -55 0 0 -164 0 -164 -40 -36 c-31 -28
-48 -36 -78 -36 -20 0 -43 4 -50 8 -24 15 -32 77 -32 234 l0 158 -55 0 -55 0
0 -192z"/>
</g>
</svg>
